<?xml version="1.0" encoding="UTF-8"?>
<svg id="Capa_2" data-name="Capa 2" xmlns="http://www.w3.org/2000/svg" viewBox="0 0 469.77 316.63">
  <defs>
    <style>
      .cls-1 {
        font-family: Philosopher, Philosopher;
        font-size: 49.05px;
        letter-spacing: .39em;
      }

      .cls-1, .cls-2, .cls-3 {
        fill: #387920;
      }

      .cls-2 {
        font-family: Aller-Regular, Aller;
        font-size: 24.55px;
        letter-spacing: .2em;
      }

      .cls-4 {
        fill: #8bb538;
      }
    </style>
  </defs>
  <g id="Capa_1-2" data-name="Capa 1">
    <g>
      <text class="cls-1" transform="translate(0 268.67)"><tspan x="0" y="0">REFORESTA</tspan></text>
      <g>
        <path class="cls-4" d="m300.22,120.3c-6.44-4.63-17.91-10.21-27.98-14.67l-25.24,44.28,48.79-117.98,12.33-1.98,7.71-18.64-27.37-11.32-7.71,18.64,7.33,10.11-18.3,44.25c-.82-9.67-5.28-17.53-12.24-28.76-10.21-16.45-3.63-37.59-3.2-38.92-2.49,7.78-8.87,20.81-.17,40.22-11.52-6.42-31.57-4.55-32.61-4.03,0,0,21.72-.82,35.11,9.34,7.05,15.11,9.82,25.21,6.92,37.12h0s-4.93,11.92-4.93,11.92c-11.21-4.51-26.73-10.19-36.13-11.72,0,0-37.63,53.34-2.48,99.18h-66.1s31.25,3.41,64.81,4.89c1.84.08,8.68.5,10.02.38,6.02.19,12.03.3,17.85.3,46.27,0,69.2-5.56,69.2-5.56h-65.4c41.22-17.09,49.78-67.05,49.78-67.05Zm-7.89-110.56l13.88,5.74-3.2,7.73-3.87.62-2.33.37-3.99-1.65-1.39-1.91-2.3-3.17,3.2-7.73Z"/>
        <path class="cls-4" d="m254.33,5.32s.01-.05.02-.07c0,0,0,.02-.02.07Z"/>
        <path class="cls-4" d="m244.8,18.93l-4.1-9.09,6.17,7.83c.2-3.41-.59-6.91-2.49-10.05-2.27-3.75-5.74-6.34-9.61-7.57-.7,4.01,0,8.28,2.27,12.02,1.9,3.14,4.64,5.46,7.77,6.86Z"/>
        <path class="cls-4" d="m264.1,26.23l-4.5,9.89c3.41-1.51,6.4-4.02,8.5-7.44,2.5-4.07,3.28-8.73,2.53-13.1-4.23,1.32-8.02,4.13-10.52,8.21-2.09,3.41-2.98,7.23-2.77,10.96l6.76-8.51Z"/>
        <path class="cls-4" d="m207.6,46.79c3.12-.32,5.92-1.57,8.15-3.47l-8.52-.18,8.31-1.88c-2.56-1.41-5.55-2.09-8.67-1.77-3.73.38-7,2.1-9.37,4.64,2.83,2.01,6.39,3.05,10.11,2.67Z"/>
        <path class="cls-4" d="m223.84,32.14c2.79,2.35,6.11,3.67,9.5,3.99l-6.75-7.26,8.3,5.41c-.89-3.28-2.75-6.32-5.54-8.67-3.33-2.8-7.42-4.14-11.46-4.07.61,3.99,2.63,7.79,5.96,10.6Z"/>
        <path class="cls-4" d="m237.58,54.1c-4.51,1.57-8.07,4.67-10.27,8.52,4.11,1.66,8.82,1.9,13.34.33,3.78-1.31,6.89-3.7,9.09-6.71l-10.63,2.29,9.76-4.79c-3.59-1-7.5-.95-11.29.36Z"/>
      </g>
      <text class="cls-2" transform="translate(51.35 310.3)"><tspan x="0" y="0" xml:space="preserve">REDESCUBRE   RESPIRA</tspan></text>
      <circle class="cls-3" cx="260.95" cy="300.76" r="5"/>
    </g>
  </g>
</svg>