<?xml version="1.0" encoding="UTF-8"?>
<svg id="Capa_2" data-name="Capa 2" xmlns="http://www.w3.org/2000/svg" viewBox="0 0 336.04 81.36">
  <defs>
    <style>
      .cls-1 {
        fill: #d23a34;
      }

      .cls-2 {
        fill: #001783;
      }
    </style>
  </defs>
  <g id="Capa_1-2" data-name="Capa 1">
    <g>
      <rect class="cls-1" y="74.57" width="321.97" height="6.8"/>
      <path class="cls-2" d="m330.51,11.05c-3.05,0-5.52-2.47-5.52-5.53s2.47-5.52,5.52-5.52,5.54,2.47,5.54,5.52-2.49,5.53-5.54,5.53m0-10.29c-2.61,0-4.75,2.14-4.75,4.75s2.14,4.75,4.75,4.75,4.75-2.13,4.75-4.75-2.13-4.75-4.75-4.75m1.42,7.9l-2.12-2.85h-.26v2.85h-.95V2.41c.42-.21,1.02-.34,1.64-.34,1.48,0,2.28.87,2.28,1.86s-.7,1.66-1.72,1.8l2.27,2.94h-1.14Zm-1.76-5.85c-.23,0-.46.05-.63.11v2.19h.41c.96,0,1.61-.25,1.61-1.17,0-.97-.92-1.13-1.39-1.13"/>
      <path class="cls-2" d="m304.98,64.26c-6.97,0-11.82-1.41-14.46-3.52l3.53-12.79c.97.88,4.15,2.55,7.59,2.55,3,0,4.58-2.11,4.58-3.88,0-3.17-1.23-5.02-6.17-9.52-6.61-5.91-9-10.85-9-17.29,0-11.03,6.97-17.99,17.64-17.99,5.12,0,10.23,1.41,12.97,3.53l-2.65,10.93c-1.32-.97-4.05-1.76-6.96-1.76-2.64,0-4.77,1.59-4.77,4.32,0,2.91,1.15,4.5,6.09,9,7.14,6.35,10.14,10.49,10.14,18.16,0,11.11-7.41,18.25-18.52,18.25"/>
      <rect class="cls-2" x="264.94" y="27.69" width="21.34" height="13.14"/>
      <path class="cls-2" d="m156.23,64.37c-14.97,0-21.57-14-21.57-31.17s6.6-31.17,21.57-31.17,21.57,14,21.57,31.17-6.6,31.17-21.57,31.17m0-49.66c-4.23,0-4.84,8.9-4.84,17.87s.7,17.87,4.84,17.87,4.75-8.8,4.75-17.87-.62-17.87-4.75-17.87"/>
      <polygon class="cls-2" points="204.3 15.08 204.3 63.05 187.9 63.05 187.9 15.08 180.14 15.08 180.14 2.39 212.06 2.39 212.06 15.08 204.3 15.08"/>
      <path class="cls-2" d="m19.64,41.96l-.97-.09v21.31H2.29V5.24C6.43,3.13,12.77,1.72,20.25,1.72c16.29,0,21.75,8.63,21.75,20.16s-6.42,21.49-22.36,20.08m.61-29.14c-.53,0-1.05.08-1.59.17v17.79h.97c5.46,0,6.16-4.75,6.07-8.9,0-4.05-.53-9.06-5.46-9.06"/>
      <path class="cls-2" d="m67.43,63.18l-1.67-8.02h-12.95l-1.67,8.02h-13.91L53.26,3.51s2.99-1.84,7.72-1.83c4.73.02,7.51,1.83,7.51,1.83l15.67,59.67h-16.73Zm-6.6-33.55c-.61-3.43-1.15-7.22-1.15-7.22h-.17s-.53,3.79-1.24,7.22l-3.17,14.79h8.54l-2.82-14.79Z"/>
      <path class="cls-2" d="m116.54,63.18l-12.94-26.07c-1.49-2.9-2.2-5.02-2.2-5.02h-.27s.27,2.03.27,5.02v26.07h-13.91V3.51s2.74-1.81,7.1-1.81,6.28,1.81,6.28,1.81l10.83,19.95c1.4,2.73,2.82,5.81,2.82,5.81h.18s-.26-3.08-.26-5.9V3.51s2.36-1.83,6.63-1.83c4.27,0,7.27,1.83,7.27,1.83v59.67h-11.8Z"/>
      <path class="cls-2" d="m236.3,64.37c-14.97,0-21.58-14-21.58-31.17s6.61-31.17,21.58-31.17,21.58,14,21.58,31.17-6.61,31.17-21.58,31.17m0-49.66c-4.23,0-4.84,8.9-4.84,17.87s.7,17.87,4.84,17.87,4.75-8.81,4.75-17.87-.62-17.87-4.75-17.87"/>
    </g>
  </g>
</svg>