<?xml version="1.0" encoding="UTF-8"?>
<svg id="Capa_2" data-name="Capa 2" xmlns="http://www.w3.org/2000/svg" viewBox="0 0 372.58 73.5">
  <defs>
    <style>
      .cls-1 {
        fill: #d23a34;
      }

      .cls-2, .cls-3 {
        fill: #001783;
      }

      .cls-3 {
        font-family: Aller-Bold, Aller;
        font-size: 41.84px;
        font-weight: 700;
      }
    </style>
  </defs>
  <g id="Capa_1-2" data-name="Capa 1">
    <g>
      <text class="cls-3" transform="translate(312.58 21.03) scale(.58)"><tspan x="0" y="0">3,5-8</tspan></text>
      <rect class="cls-1" y="67.36" width="290.86" height="6.14"/>
      <path class="cls-2" d="m298.57,9.98c-2.75,0-4.98-2.23-4.98-5s2.23-4.98,4.98-4.98,5,2.23,5,4.98-2.25,5-5,5m0-9.29c-2.36,0-4.29,1.94-4.29,4.29s1.93,4.29,4.29,4.29,4.29-1.92,4.29-4.29-1.93-4.29-4.29-4.29m1.28,7.13l-1.92-2.57h-.23v2.57h-.86V2.17c.38-.19.92-.31,1.49-.31,1.34,0,2.06.79,2.06,1.68s-.63,1.5-1.55,1.63l2.05,2.65h-1.03Zm-1.59-5.28c-.21,0-.42.04-.57.1v1.98h.37c.87,0,1.45-.22,1.45-1.05,0-.88-.83-1.02-1.25-1.02"/>
      <path class="cls-2" d="m275.51,58.05c-6.3,0-10.67-1.28-13.07-3.18l3.19-11.55c.88.79,3.75,2.3,6.85,2.3,2.71,0,4.14-1.91,4.14-3.5,0-2.87-1.11-4.54-5.57-8.6-5.98-5.34-8.13-9.8-8.13-15.62,0-9.96,6.29-16.25,15.93-16.25,4.62,0,9.25,1.28,11.71,3.19l-2.39,9.88c-1.19-.87-3.66-1.59-6.29-1.59-2.39,0-4.31,1.43-4.31,3.9,0,2.63,1.04,4.06,5.5,8.13,6.45,5.74,9.16,9.47,9.16,16.41,0,10.03-6.69,16.49-16.73,16.49"/>
      <rect class="cls-2" x="239.34" y="25.02" width="19.28" height="11.87"/>
      <path class="cls-2" d="m141.14,58.15c-13.52,0-19.49-12.65-19.49-28.16S127.61,1.83,141.14,1.83s19.49,12.65,19.49,28.16-5.96,28.16-19.49,28.16m0-44.86c-3.82,0-4.37,8.04-4.37,16.15s.63,16.14,4.37,16.14,4.29-7.95,4.29-16.14-.56-16.15-4.29-16.15"/>
      <polygon class="cls-2" points="184.56 13.63 184.56 56.96 169.74 56.96 169.74 13.63 162.74 13.63 162.74 2.15 191.57 2.15 191.57 13.63 184.56 13.63"/>
      <path class="cls-2" d="m17.74,37.9l-.88-.08v19.25H2.07V4.73c3.74-1.91,9.46-3.18,16.22-3.18,14.71,0,19.65,7.79,19.65,18.21s-5.8,19.41-20.2,18.14m.55-26.33c-.48,0-.95.07-1.43.16v16.07h.88c4.93,0,5.57-4.29,5.49-8.04,0-3.66-.48-8.19-4.93-8.19"/>
      <path class="cls-2" d="m60.91,57.07l-1.51-7.24h-11.7l-1.51,7.24h-12.57L48.11,3.17s2.7-1.66,6.97-1.65c4.27.02,6.78,1.65,6.78,1.65l14.16,53.9h-15.11Zm-5.96-30.31c-.55-3.1-1.04-6.52-1.04-6.52h-.15s-.48,3.42-1.12,6.52l-2.87,13.36h7.72l-2.54-13.36Z"/>
      <path class="cls-2" d="m105.28,57.07l-11.69-23.55c-1.35-2.62-1.99-4.54-1.99-4.54h-.24s.24,1.83.24,4.54v23.55h-12.57V3.17s2.47-1.63,6.41-1.63,5.67,1.63,5.67,1.63l9.79,18.03c1.27,2.47,2.54,5.25,2.54,5.25h.16s-.24-2.78-.24-5.33V3.17s2.13-1.65,5.99-1.65c3.86,0,6.57,1.65,6.57,1.65v53.9h-10.66Z"/>
      <path class="cls-2" d="m213.46,58.15c-13.52,0-19.49-12.65-19.49-28.16s5.97-28.16,19.49-28.16,19.49,12.65,19.49,28.16-5.97,28.16-19.49,28.16m0-44.86c-3.82,0-4.37,8.04-4.37,16.15s.63,16.15,4.37,16.15,4.29-7.96,4.29-16.15-.56-16.15-4.29-16.15"/>
    </g>
  </g>
</svg>