<?xml version="1.0" encoding="UTF-8"?>
<svg xmlns="http://www.w3.org/2000/svg" xmlns:xlink="http://www.w3.org/1999/xlink" viewBox="0 0 179.17 552.03">
  <defs>
    <style>
      .cls-1 {
        fill: url(#radial-gradient-3);
      }

      .cls-1, .cls-2, .cls-3, .cls-4, .cls-5, .cls-6, .cls-7, .cls-8, .cls-9, .cls-10, .cls-11, .cls-12, .cls-13, .cls-14, .cls-15, .cls-16, .cls-17, .cls-18, .cls-19, .cls-20, .cls-21, .cls-22, .cls-23, .cls-24, .cls-25, .cls-26, .cls-27, .cls-28, .cls-29, .cls-30, .cls-31, .cls-32, .cls-33, .cls-34, .cls-35, .cls-36, .cls-37, .cls-38, .cls-39, .cls-40, .cls-41, .cls-42, .cls-43, .cls-44, .cls-45, .cls-46, .cls-47, .cls-48, .cls-49, .cls-50, .cls-51, .cls-52, .cls-53, .cls-54, .cls-55, .cls-56, .cls-57, .cls-58, .cls-59, .cls-60, .cls-61 {
        mix-blend-mode: screen;
      }

      .cls-2 {
        opacity: .02;
      }

      .cls-2, .cls-3, .cls-5, .cls-7, .cls-8, .cls-9, .cls-10, .cls-13, .cls-14, .cls-15, .cls-16, .cls-18, .cls-19, .cls-21, .cls-23, .cls-24, .cls-25, .cls-26, .cls-27, .cls-29, .cls-30, .cls-31, .cls-32, .cls-33, .cls-34, .cls-35, .cls-36, .cls-37, .cls-38, .cls-39, .cls-40, .cls-41, .cls-45, .cls-46, .cls-47, .cls-48, .cls-50, .cls-51, .cls-52, .cls-53, .cls-55, .cls-56, .cls-57, .cls-58, .cls-59, .cls-60, .cls-61 {
        fill: #fff;
      }

      .cls-3 {
        opacity: .37;
      }

      .cls-4 {
        fill: url(#linear-gradient);
        opacity: .69;
      }

      .cls-6 {
        fill: url(#linear-gradient-4);
      }

      .cls-7 {
        opacity: .93;
      }

      .cls-8 {
        opacity: .22;
      }

      .cls-9 {
        opacity: .24;
      }

      .cls-10 {
        opacity: .8;
      }

      .cls-11 {
        fill: url(#linear-gradient-2);
      }

      .cls-12 {
        fill: url(#radial-gradient-7);
      }

      .cls-13 {
        opacity: .65;
      }

      .cls-62 {
        fill: url(#Degradado_sin_nombre_24);
        mix-blend-mode: multiply;
        opacity: .95;
      }

      .cls-14 {
        opacity: .07;
      }

      .cls-15 {
        opacity: .3;
      }

      .cls-63 {
        isolation: isolate;
      }

      .cls-16 {
        opacity: .46;
      }

      .cls-17 {
        fill: url(#radial-gradient-5);
      }

      .cls-18 {
        opacity: .76;
      }

      .cls-19 {
        opacity: .7;
      }

      .cls-20 {
        fill: url(#radial-gradient-8);
      }

      .cls-21 {
        opacity: .89;
      }

      .cls-22 {
        fill: url(#linear-gradient-6);
      }

      .cls-23 {
        opacity: .26;
      }

      .cls-24 {
        opacity: 0;
      }

      .cls-25 {
        opacity: .57;
      }

      .cls-64 {
        opacity: .35;
      }

      .cls-26 {
        opacity: .87;
      }

      .cls-27 {
        opacity: .54;
      }

      .cls-65 {
        fill: url(#radial-gradient);
      }

      .cls-28 {
        fill: url(#linear-gradient-8);
      }

      .cls-29 {
        opacity: .85;
      }

      .cls-30 {
        opacity: .96;
      }

      .cls-31 {
        opacity: .83;
      }

      .cls-66 {
        opacity: .75;
      }

      .cls-32 {
        opacity: .61;
      }

      .cls-33 {
        opacity: .63;
      }

      .cls-67 {
        fill: #737373;
      }

      .cls-68 {
        fill: url(#linear-gradient-5);
      }

      .cls-34 {
        opacity: .39;
      }

      .cls-35 {
        opacity: .74;
      }

      .cls-36 {
        opacity: .52;
      }

      .cls-69 {
        fill: url(#Degradado_sin_nombre_388);
        opacity: .51;
      }

      .cls-37 {
        opacity: .48;
      }

      .cls-38 {
        opacity: .67;
      }

      .cls-39 {
        opacity: .33;
      }

      .cls-40 {
        opacity: .72;
      }

      .cls-41 {
        opacity: .98;
      }

      .cls-42 {
        fill: url(#radial-gradient-9);
      }

      .cls-43 {
        fill: url(#radial-gradient-2);
      }

      .cls-44 {
        fill: url(#radial-gradient-4);
      }

      .cls-70 {
        fill: url(#Degradado_sin_nombre_16);
      }

      .cls-45 {
        opacity: .35;
      }

      .cls-46 {
        opacity: .28;
      }

      .cls-47 {
        opacity: .91;
      }

      .cls-48 {
        opacity: .43;
      }

      .cls-49 {
        fill: url(#radial-gradient-6);
      }

      .cls-71 {
        fill: url(#linear-gradient-3);
      }

      .cls-50 {
        opacity: .11;
      }

      .cls-51 {
        opacity: .2;
      }

      .cls-52 {
        opacity: .09;
      }

      .cls-72 {
        fill: #e3e6ec;
      }

      .cls-53 {
        opacity: .17;
      }

      .cls-54 {
        fill: url(#linear-gradient-7);
      }

      .cls-55 {
        opacity: .41;
      }

      .cls-56 {
        opacity: .5;
      }

      .cls-57 {
        opacity: .59;
      }

      .cls-58 {
        opacity: .78;
      }

      .cls-59 {
        opacity: .13;
      }

      .cls-60 {
        opacity: .15;
      }

      .cls-61 {
        opacity: .04;
      }
    </style>
    <linearGradient id="Degradado_sin_nombre_16" data-name="Degradado sin nombre 16" x1="26.57" y1="286.84" x2="153.07" y2="286.84" gradientUnits="userSpaceOnUse">
      <stop offset="0" stop-color="#e8a52b"/>
      <stop offset=".5" stop-color="#e3cc35"/>
      <stop offset=".87" stop-color="#ecc232"/>
    </linearGradient>
    <linearGradient id="linear-gradient" x1="89.82" y1="482.87" x2="89.82" y2="466.06" gradientUnits="userSpaceOnUse">
      <stop offset="0" stop-color="#818181"/>
      <stop offset=".61" stop-color="#5e5e5e"/>
      <stop offset="1" stop-color="#4d4d4d"/>
    </linearGradient>
    <linearGradient id="linear-gradient-2" x1="89.58" y1="92.2" x2="89.58" y2="75.38" gradientUnits="userSpaceOnUse">
      <stop offset="0" stop-color="#818181"/>
      <stop offset=".25" stop-color="#787878"/>
      <stop offset=".64" stop-color="#626262"/>
      <stop offset=".93" stop-color="#4d4d4d"/>
    </linearGradient>
    <linearGradient id="Degradado_sin_nombre_24" data-name="Degradado sin nombre 24" x1="26.57" y1="253.36" x2="153.07" y2="253.36" gradientUnits="userSpaceOnUse">
      <stop offset="0" stop-color="#c8c8c8"/>
      <stop offset=".02" stop-color="#d6d6d6"/>
      <stop offset=".05" stop-color="#e8e8e8"/>
      <stop offset=".08" stop-color="#f5f5f5"/>
      <stop offset=".13" stop-color="#fcfcfc"/>
      <stop offset=".23" stop-color="#fff"/>
      <stop offset=".42" stop-color="#efefef"/>
      <stop offset=".76" stop-color="#cbcbcb"/>
      <stop offset=".87" stop-color="#c8c8c8"/>
      <stop offset="1" stop-color="#c8c8c8"/>
    </linearGradient>
    <linearGradient id="linear-gradient-3" x1="26.57" y1="24.53" x2="153.07" y2="24.53" gradientUnits="userSpaceOnUse">
      <stop offset="0" stop-color="#949295"/>
      <stop offset="0" stop-color="#a3a1a4"/>
      <stop offset=".03" stop-color="#bfbec0"/>
      <stop offset=".05" stop-color="#d7d6d7"/>
      <stop offset=".08" stop-color="#e8e8e9"/>
      <stop offset=".1" stop-color="#f5f5f5"/>
      <stop offset=".14" stop-color="#fcfcfc"/>
      <stop offset=".23" stop-color="#fff"/>
      <stop offset=".29" stop-color="#efefef"/>
      <stop offset=".41" stop-color="#c6c6c7"/>
      <stop offset=".44" stop-color="#bbbbbd"/>
      <stop offset=".47" stop-color="#b4b4b6"/>
      <stop offset=".51" stop-color="#a3a1a5"/>
      <stop offset=".56" stop-color="#8b888d"/>
      <stop offset=".58" stop-color="#706e72"/>
      <stop offset=".63" stop-color="#414042"/>
      <stop offset=".67" stop-color="#242325"/>
      <stop offset=".69" stop-color="#1a191a"/>
      <stop offset=".72" stop-color="#232223"/>
      <stop offset=".77" stop-color="#3d3c3e"/>
      <stop offset=".83" stop-color="#686568"/>
      <stop offset=".84" stop-color="#726f73"/>
      <stop offset="1" stop-color="#a8a6a9"/>
    </linearGradient>
    <linearGradient id="linear-gradient-4" x1="26.57" y1="13.06" x2="153.07" y2="13.06" gradientUnits="userSpaceOnUse">
      <stop offset=".01" stop-color="#000"/>
      <stop offset=".03" stop-color="#232323"/>
      <stop offset=".08" stop-color="#656565"/>
      <stop offset=".12" stop-color="#9c9c9c"/>
      <stop offset=".15" stop-color="#c6c6c6"/>
      <stop offset=".18" stop-color="#e5e5e5"/>
      <stop offset=".21" stop-color="#f8f8f8"/>
      <stop offset=".23" stop-color="#fff"/>
      <stop offset=".44" stop-color="#fff"/>
      <stop offset=".51" stop-color="#bfbfbf"/>
      <stop offset=".59" stop-color="#868686"/>
      <stop offset=".67" stop-color="#565656"/>
      <stop offset=".74" stop-color="#303030"/>
      <stop offset=".8" stop-color="#151515"/>
      <stop offset=".86" stop-color="#050505"/>
      <stop offset=".91" stop-color="#000"/>
    </linearGradient>
    <linearGradient id="linear-gradient-5" y1="490.59" y2="490.59" xlink:href="#linear-gradient-3"/>
    <radialGradient id="radial-gradient" cx="-372.94" cy="250.55" fx="-372.94" fy="250.55" r="248.13" gradientTransform="translate(466.23 -4.63)" gradientUnits="userSpaceOnUse">
      <stop offset=".92" stop-color="#d7d7d7"/>
      <stop offset=".93" stop-color="#d2d2d2"/>
      <stop offset=".95" stop-color="#c5c4c5"/>
      <stop offset=".97" stop-color="#aeaeae"/>
      <stop offset=".99" stop-color="#908f90"/>
      <stop offset="1" stop-color="#737273"/>
    </radialGradient>
    <linearGradient id="linear-gradient-6" x1="133.15" y1="491.18" x2="147.44" y2="491.18" gradientUnits="userSpaceOnUse">
      <stop offset="0" stop-color="#000"/>
      <stop offset=".26" stop-color="#202020"/>
      <stop offset=".56" stop-color="#404040"/>
      <stop offset=".66" stop-color="#373737"/>
      <stop offset=".82" stop-color="#212121"/>
      <stop offset="1" stop-color="#000"/>
    </linearGradient>
    <linearGradient id="linear-gradient-7" y1="25.12" y2="25.12" xlink:href="#linear-gradient-6"/>
    <linearGradient id="linear-gradient-8" x1="26.57" y1="479.11" x2="153.07" y2="479.11" gradientUnits="userSpaceOnUse">
      <stop offset=".01" stop-color="#000"/>
      <stop offset=".03" stop-color="#1e1e1e"/>
      <stop offset=".06" stop-color="#585858"/>
      <stop offset=".09" stop-color="#8b8b8b"/>
      <stop offset=".12" stop-color="#b5b5b5"/>
      <stop offset=".15" stop-color="#d5d5d5"/>
      <stop offset=".18" stop-color="#ececec"/>
      <stop offset=".21" stop-color="#fafafa"/>
      <stop offset=".23" stop-color="#fff"/>
      <stop offset=".44" stop-color="#fff"/>
      <stop offset=".49" stop-color="#eaeaea"/>
      <stop offset=".6" stop-color="#b6b6b6"/>
      <stop offset=".75" stop-color="#636363"/>
      <stop offset=".92" stop-color="#000"/>
    </linearGradient>
    <radialGradient id="radial-gradient-2" cx="-2141.55" cy="20.51" fx="-2141.55" fy="20.51" r="13.39" gradientTransform="translate(270.44 -4.63) scale(.1 1.01)" gradientUnits="userSpaceOnUse">
      <stop offset="0" stop-color="#fff"/>
      <stop offset=".07" stop-color="#dfdfdf"/>
      <stop offset=".21" stop-color="#a4a4a4"/>
      <stop offset=".34" stop-color="#727272"/>
      <stop offset=".48" stop-color="#494949"/>
      <stop offset=".61" stop-color="#292929"/>
      <stop offset=".73" stop-color="#121212"/>
      <stop offset=".85" stop-color="#040404"/>
      <stop offset=".95" stop-color="#000"/>
    </radialGradient>
    <radialGradient id="radial-gradient-3" cx="3037.14" cy="-1.03" fx="3037.14" fy="-1.03" r="13.39" gradientTransform="translate(-159.39 -197.59) rotate(44.93) scale(.1 1.01) skewX(-1.49)" xlink:href="#radial-gradient-2"/>
    <radialGradient id="radial-gradient-4" cx="6551.55" cy="-379.57" fx="6551.55" fy="-379.57" r="13.39" gradientTransform="translate(-326.88 -637.61) rotate(90) scale(.1 1.01)" xlink:href="#radial-gradient-2"/>
    <radialGradient id="radial-gradient-5" cx="6328.2" cy="-893.1" fx="6328.2" fy="-893.1" r="13.39" gradientTransform="translate(-133.42 -1066.33) rotate(135.07) scale(.1 1.01) skewX(1.49)" xlink:href="#radial-gradient-2"/>
    <radialGradient id="radial-gradient-6" cy="483.31" fy="483.31" r="13.39" xlink:href="#radial-gradient-2"/>
    <radialGradient id="radial-gradient-7" cx="6338.15" cy="326.22" fx="6338.15" fy="326.22" r="13.39" gradientTransform="translate(-159.39 -197.59) rotate(44.93) scale(.1 1.01) skewX(-1.49)" xlink:href="#radial-gradient-2"/>
    <radialGradient id="radial-gradient-8" cx="11221.6" cy="-379.57" fx="11221.6" fy="-379.57" r="13.39" gradientTransform="translate(-326.88 -637.61) rotate(90) scale(.1 1.01)" xlink:href="#radial-gradient-2"/>
    <radialGradient id="radial-gradient-9" cx="9629.21" cy="-1220.36" fx="9629.21" fy="-1220.36" r="13.39" gradientTransform="translate(-133.42 -1066.33) rotate(135.07) scale(.1 1.01) skewX(1.49)" xlink:href="#radial-gradient-2"/>
    <radialGradient id="Degradado_sin_nombre_388" data-name="Degradado sin nombre 388" cx="-251.32" cy="-701.16" fx="-251.32" fy="-701.16" r="106.81" gradientTransform="translate(300.37 648.09) scale(.84 .16)" gradientUnits="userSpaceOnUse">
      <stop offset="0" stop-color="#0b247b" stop-opacity=".6"/>
      <stop offset=".01" stop-color="#0b247b" stop-opacity=".59"/>
      <stop offset=".44" stop-color="#0e2b83" stop-opacity=".27"/>
      <stop offset=".79" stop-color="#113088" stop-opacity=".07"/>
      <stop offset="1" stop-color="#12328a" stop-opacity="0"/>
    </radialGradient>
  </defs>
  <g class="cls-63">
    <g id="Capa_2" data-name="Capa 2">
      <g id="Capa_1-2" data-name="Capa 1">
        <g>
          <rect class="cls-72" x="26.57" y="8.41" width="126.5" height="489.89"/>
          <path class="cls-70" d="m89.82,75.38c-34.93,0-63.25,3.76-63.25,8.41v414.51h126.5V83.79c0-4.64-28.32-8.41-63.25-8.41Z"/>
          <ellipse class="cls-4" cx="89.82" cy="474.47" rx="63.25" ry="8.41"/>
          <ellipse class="cls-11" cx="89.58" cy="83.79" rx="63.25" ry="8.41"/>
          <rect class="cls-62" x="26.57" y="8.41" width="126.5" height="489.89"/>
          <path class="cls-71" d="m153.07,8.41v23.84c0,4.64-28.32,8.41-63.25,8.41s-63.25-3.76-63.25-8.41V8.41h126.5Z"/>
          <path class="cls-6" d="m153.07,8.77c0,4.84-28.32,8.76-63.25,8.76s-63.25-3.92-63.25-8.76c0-.07,0-.12.02-.19.7,4.56,28.74,8.24,63.23,8.24s62.53-3.67,63.23-8.24c0,.07.02.12.02.19Z"/>
          <path class="cls-68" d="m153.07,474.47v23.84c0,1.23-2.01,2.41-5.63,3.47-3.44,1.01-8.32,1.91-14.29,2.65-11.32,1.41-26.57,2.29-43.33,2.29-34.93,0-63.25-3.76-63.25-8.41v-23.84c0,4.64,28.32,8.41,63.25,8.41,16.76,0,32.01-.87,43.33-2.29,5.97-.75,10.85-1.64,14.29-2.65,3.62-1.06,5.63-2.24,5.63-3.47Z"/>
          <path class="cls-65" d="m26.57,8.41c0,4.64,28.32,8.41,63.25,8.41s63.25-3.76,63.25-8.41S124.75,0,89.82,0,26.57,3.76,26.57,8.41Z"/>
          <path class="cls-67" d="m153.07,32.41c0,4.64-28.32,8.41-63.25,8.41s-63.25-3.76-63.25-8.41c0-.02,0-.06,0-.08.33,4.6,28.51,8.33,63.24,8.33s62.91-3.72,63.24-8.33c0,.02,0,.06,0,.08Z"/>
          <path class="cls-67" d="m153.07,474.47c0,4.64-28.32,8.41-63.25,8.41s-63.25-3.76-63.25-8.41c0-.02,0-.06,0-.08.33,4.6,28.51,8.33,63.24,8.33s62.91-3.72,63.24-8.33c0,.02,0,.06,0,.08Z"/>
          <g class="cls-66">
            <path class="cls-24" d="m63.38,256c0,116.52-3.2,210.93-7.14,210.93s-7.14-94.41-7.14-210.93,3.2-210.93,7.14-210.93,7.14,94.41,7.14,210.93Z"/>
            <path class="cls-2" d="m63.23,256c0,114.11-3.13,206.56-6.99,206.56s-6.99-92.45-6.99-206.56,3.13-206.56,6.99-206.56,6.99,92.45,6.99,206.56Z"/>
            <path class="cls-61" d="m63.08,256c0,111.69-3.06,202.18-6.85,202.18s-6.85-90.49-6.85-202.18,3.07-202.18,6.85-202.18,6.85,90.49,6.85,202.18Z"/>
            <path class="cls-14" d="m62.93,256c0,109.27-3,197.8-6.7,197.8s-6.7-88.53-6.7-197.8,3-197.8,6.7-197.8,6.7,88.53,6.7,197.8Z"/>
            <path class="cls-52" d="m62.78,256c0,106.86-2.93,193.42-6.55,193.42s-6.55-86.57-6.55-193.42,2.93-193.42,6.55-193.42,6.55,86.57,6.55,193.42Z"/>
            <ellipse class="cls-50" cx="56.24" cy="256" rx="6.4" ry="189.04"/>
            <ellipse class="cls-59" cx="56.24" cy="256" rx="6.25" ry="184.67"/>
            <ellipse class="cls-60" cx="56.24" cy="256" rx="6.1" ry="180.29"/>
            <path class="cls-53" d="m62.19,256c0,97.19-2.67,175.91-5.96,175.91s-5.96-78.72-5.96-175.91,2.67-175.91,5.96-175.91,5.96,78.72,5.96,175.91Z"/>
            <path class="cls-51" d="m62.04,256c0,94.77-2.6,171.53-5.81,171.53s-5.81-76.76-5.81-171.53,2.6-171.53,5.81-171.53,5.81,76.76,5.81,171.53Z"/>
            <path class="cls-8" d="m61.9,256c0,92.35-2.53,167.16-5.66,167.16s-5.66-74.8-5.66-167.16,2.53-167.16,5.66-167.16,5.66,74.8,5.66,167.16Z"/>
            <path class="cls-9" d="m61.75,256c0,89.93-2.47,162.78-5.51,162.78s-5.51-72.84-5.51-162.78,2.47-162.78,5.51-162.78,5.51,72.84,5.51,162.78Z"/>
            <path class="cls-23" d="m61.6,256c0,87.52-2.4,158.4-5.36,158.4s-5.36-70.88-5.36-158.4,2.4-158.4,5.36-158.4,5.36,70.88,5.36,158.4Z"/>
            <path class="cls-46" d="m61.45,256c0,85.1-2.33,154.02-5.22,154.02s-5.22-68.92-5.22-154.02,2.34-154.02,5.22-154.02,5.22,68.92,5.22,154.02Z"/>
            <path class="cls-15" d="m61.3,256c0,82.68-2.27,149.64-5.07,149.64s-5.07-66.96-5.07-149.64,2.27-149.64,5.07-149.64,5.07,66.96,5.07,149.64Z"/>
            <path class="cls-39" d="m61.16,256c0,80.27-2.2,145.27-4.92,145.27s-4.92-65-4.92-145.27,2.2-145.27,4.92-145.27,4.92,65,4.92,145.27Z"/>
            <path class="cls-45" d="m61.01,256c0,77.85-2.14,140.89-4.77,140.89s-4.77-63.04-4.77-140.89,2.14-140.89,4.77-140.89,4.77,63.04,4.77,140.89Z"/>
            <path class="cls-3" d="m60.86,256c0,75.43-2.07,136.51-4.62,136.51s-4.62-61.08-4.62-136.51,2.07-136.51,4.62-136.51,4.62,61.08,4.62,136.51Z"/>
            <path class="cls-34" d="m60.71,256c0,73.01-2,132.13-4.48,132.13s-4.47-59.12-4.47-132.13,2-132.13,4.47-132.13,4.48,59.12,4.48,132.13Z"/>
            <path class="cls-55" d="m60.56,256c0,70.6-1.94,127.75-4.33,127.75s-4.33-57.16-4.33-127.75,1.94-127.75,4.33-127.75,4.33,57.16,4.33,127.75Z"/>
            <path class="cls-48" d="m60.41,256c0,68.18-1.87,123.38-4.18,123.38s-4.18-55.2-4.18-123.38,1.87-123.38,4.18-123.38,4.18,55.2,4.18,123.38Z"/>
            <path class="cls-16" d="m60.27,256c0,65.76-1.8,119-4.03,119s-4.03-53.24-4.03-119,1.81-119,4.03-119,4.03,53.24,4.03,119Z"/>
            <path class="cls-37" d="m60.12,256c0,63.35-1.74,114.62-3.88,114.62s-3.88-51.28-3.88-114.62,1.74-114.62,3.88-114.62,3.88,51.28,3.88,114.62Z"/>
            <path class="cls-56" d="m59.97,256c0,60.93-1.67,110.24-3.73,110.24s-3.73-49.32-3.73-110.24,1.67-110.24,3.73-110.24,3.73,49.32,3.73,110.24Z"/>
            <path class="cls-36" d="m59.82,256c0,58.51-1.61,105.87-3.59,105.87s-3.58-47.35-3.58-105.87,1.61-105.87,3.58-105.87,3.59,47.35,3.59,105.87Z"/>
            <path class="cls-27" d="m59.67,256c0,56.09-1.54,101.49-3.44,101.49s-3.44-45.39-3.44-101.49,1.54-101.49,3.44-101.49,3.44,45.39,3.44,101.49Z"/>
            <path class="cls-25" d="m59.53,256c0,53.68-1.47,97.11-3.29,97.11s-3.29-43.43-3.29-97.11,1.47-97.11,3.29-97.11,3.29,43.43,3.29,97.11Z"/>
            <path class="cls-57" d="m59.38,256c0,51.26-1.41,92.73-3.14,92.73s-3.14-41.47-3.14-92.73,1.41-92.73,3.14-92.73,3.14,41.47,3.14,92.73Z"/>
            <path class="cls-32" d="m59.23,256c0,48.84-1.34,88.35-2.99,88.35s-2.99-39.51-2.99-88.35,1.34-88.35,2.99-88.35,2.99,39.51,2.99,88.35Z"/>
            <path class="cls-33" d="m59.08,256c0,46.43-1.27,83.98-2.85,83.98s-2.84-37.55-2.84-83.98,1.27-83.98,2.84-83.98,2.85,37.55,2.85,83.98Z"/>
            <path class="cls-13" d="m58.93,256c0,44.01-1.21,79.6-2.7,79.6s-2.7-35.59-2.7-79.6,1.21-79.6,2.7-79.6,2.7,35.59,2.7,79.6Z"/>
            <path class="cls-38" d="m58.78,256c0,41.59-1.14,75.22-2.55,75.22s-2.55-33.63-2.55-75.22,1.14-75.22,2.55-75.22,2.55,33.63,2.55,75.22Z"/>
            <path class="cls-19" d="m58.64,256c0,39.17-1.07,70.84-2.4,70.84s-2.4-31.67-2.4-70.84,1.08-70.84,2.4-70.84,2.4,31.67,2.4,70.84Z"/>
            <path class="cls-40" d="m58.49,256c0,36.76-1.01,66.47-2.25,66.47s-2.25-29.71-2.25-66.47,1.01-66.47,2.25-66.47,2.25,29.71,2.25,66.47Z"/>
            <path class="cls-35" d="m58.34,256c0,34.34-.94,62.09-2.1,62.09s-2.1-27.75-2.1-62.09.94-62.09,2.1-62.09,2.1,27.75,2.1,62.09Z"/>
            <path class="cls-18" d="m58.19,256c0,31.92-.88,57.71-1.96,57.71s-1.95-25.79-1.95-57.71.88-57.71,1.95-57.71,1.96,25.79,1.96,57.71Z"/>
            <path class="cls-58" d="m58.04,256c0,29.51-.81,53.33-1.81,53.33s-1.81-23.83-1.81-53.33.81-53.33,1.81-53.33,1.81,23.83,1.81,53.33Z"/>
            <path class="cls-10" d="m57.9,256c0,27.09-.74,48.95-1.66,48.95s-1.66-21.87-1.66-48.95.74-48.95,1.66-48.95,1.66,21.87,1.66,48.95Z"/>
            <path class="cls-31" d="m57.75,256c0,24.67-.68,44.58-1.51,44.58s-1.51-19.91-1.51-44.58.68-44.58,1.51-44.58,1.51,19.91,1.51,44.58Z"/>
            <path class="cls-29" d="m57.6,256c0,22.25-.61,40.2-1.36,40.2s-1.36-17.95-1.36-40.2.61-40.2,1.36-40.2,1.36,17.95,1.36,40.2Z"/>
            <path class="cls-26" d="m57.45,256c0,19.84-.54,35.82-1.22,35.82s-1.21-15.98-1.21-35.82.54-35.82,1.21-35.82,1.22,15.98,1.22,35.82Z"/>
            <path class="cls-21" d="m57.3,256c0,17.42-.48,31.44-1.07,31.44s-1.06-14.02-1.06-31.44.48-31.44,1.06-31.44,1.07,14.02,1.07,31.44Z"/>
            <path class="cls-47" d="m57.15,256c0,15-.41,27.07-.92,27.07s-.92-12.06-.92-27.07.41-27.07.92-27.07.92,12.06.92,27.07Z"/>
            <path class="cls-7" d="m57.01,256c0,12.58-.35,22.69-.77,22.69s-.77-10.1-.77-22.69.35-22.69.77-22.69.77,10.1.77,22.69Z"/>
            <path class="cls-30" d="m56.86,256c0,10.17-.28,18.31-.62,18.31s-.62-8.14-.62-18.31.28-18.31.62-18.31.62,8.14.62,18.31Z"/>
            <path class="cls-41" d="m56.71,256c0,7.75-.21,13.93-.47,13.93s-.47-6.18-.47-13.93.21-13.93.47-13.93.47,6.18.47,13.93Z"/>
            <path class="cls-5" d="m56.56,256c0,5.33-.15,9.55-.33,9.55s-.32-4.22-.32-9.55.15-9.55.32-9.55.33,4.22.33,9.55Z"/>
          </g>
          <g class="cls-64">
            <path class="cls-24" d="m147.44,256c0,116.52-3.2,210.93-7.14,210.93s-7.14-94.41-7.14-210.93,3.2-210.93,7.14-210.93,7.14,94.41,7.14,210.93Z"/>
            <path class="cls-2" d="m147.29,256c0,114.11-3.13,206.56-6.99,206.56s-6.99-92.45-6.99-206.56,3.13-206.56,6.99-206.56,6.99,92.45,6.99,206.56Z"/>
            <path class="cls-61" d="m147.14,256c0,111.69-3.06,202.18-6.85,202.18s-6.85-90.49-6.85-202.18,3.07-202.18,6.85-202.18,6.85,90.49,6.85,202.18Z"/>
            <ellipse class="cls-14" cx="140.29" cy="256" rx="6.7" ry="197.8"/>
            <ellipse class="cls-52" cx="140.29" cy="256" rx="6.55" ry="193.42"/>
            <ellipse class="cls-50" cx="140.29" cy="256" rx="6.4" ry="189.04"/>
            <path class="cls-59" d="m146.55,256c0,102.02-2.8,184.67-6.25,184.67s-6.25-82.65-6.25-184.67,2.8-184.67,6.25-184.67,6.25,82.65,6.25,184.67Z"/>
            <path class="cls-60" d="m146.4,256c0,99.6-2.73,180.29-6.1,180.29s-6.1-80.68-6.1-180.29,2.73-180.29,6.1-180.29,6.1,80.68,6.1,180.29Z"/>
            <path class="cls-53" d="m146.25,256c0,97.19-2.67,175.91-5.96,175.91s-5.96-78.72-5.96-175.91,2.67-175.91,5.96-175.91,5.96,78.72,5.96,175.91Z"/>
            <path class="cls-51" d="m146.1,256c0,94.77-2.6,171.53-5.81,171.53s-5.81-76.76-5.81-171.53,2.6-171.53,5.81-171.53,5.81,76.76,5.81,171.53Z"/>
            <path class="cls-8" d="m145.95,256c0,92.35-2.53,167.16-5.66,167.16s-5.66-74.8-5.66-167.16,2.53-167.16,5.66-167.16,5.66,74.8,5.66,167.16Z"/>
            <path class="cls-9" d="m145.81,256c0,89.93-2.47,162.78-5.51,162.78s-5.51-72.84-5.51-162.78,2.47-162.78,5.51-162.78,5.51,72.84,5.51,162.78Z"/>
            <path class="cls-23" d="m145.66,256c0,87.52-2.4,158.4-5.36,158.4s-5.36-70.88-5.36-158.4,2.4-158.4,5.36-158.4,5.36,70.88,5.36,158.4Z"/>
            <path class="cls-46" d="m145.51,256c0,85.1-2.33,154.02-5.22,154.02s-5.22-68.92-5.22-154.02,2.34-154.02,5.22-154.02,5.22,68.92,5.22,154.02Z"/>
            <path class="cls-15" d="m145.36,256c0,82.68-2.27,149.64-5.07,149.64s-5.07-66.96-5.07-149.64,2.27-149.64,5.07-149.64,5.07,66.96,5.07,149.64Z"/>
            <path class="cls-39" d="m145.21,256c0,80.27-2.2,145.27-4.92,145.27s-4.92-65-4.92-145.27,2.2-145.27,4.92-145.27,4.92,65,4.92,145.27Z"/>
            <path class="cls-45" d="m145.06,256c0,77.85-2.14,140.89-4.77,140.89s-4.77-63.04-4.77-140.89,2.14-140.89,4.77-140.89,4.77,63.04,4.77,140.89Z"/>
            <path class="cls-3" d="m144.92,256c0,75.43-2.07,136.51-4.62,136.51s-4.62-61.08-4.62-136.51,2.07-136.51,4.62-136.51,4.62,61.08,4.62,136.51Z"/>
            <path class="cls-34" d="m144.77,256c0,73.01-2,132.13-4.48,132.13s-4.47-59.12-4.47-132.13,2-132.13,4.47-132.13,4.48,59.12,4.48,132.13Z"/>
            <path class="cls-55" d="m144.62,256c0,70.6-1.94,127.75-4.33,127.75s-4.33-57.16-4.33-127.75,1.94-127.75,4.33-127.75,4.33,57.16,4.33,127.75Z"/>
            <path class="cls-48" d="m144.47,256c0,68.18-1.87,123.38-4.18,123.38s-4.18-55.2-4.18-123.38,1.87-123.38,4.18-123.38,4.18,55.2,4.18,123.38Z"/>
            <path class="cls-16" d="m144.32,256c0,65.76-1.8,119-4.03,119s-4.03-53.24-4.03-119,1.81-119,4.03-119,4.03,53.24,4.03,119Z"/>
            <path class="cls-37" d="m144.18,256c0,63.35-1.74,114.62-3.88,114.62s-3.88-51.28-3.88-114.62,1.74-114.62,3.88-114.62,3.88,51.28,3.88,114.62Z"/>
            <path class="cls-56" d="m144.03,256c0,60.93-1.67,110.24-3.73,110.24s-3.73-49.32-3.73-110.24,1.67-110.24,3.73-110.24,3.73,49.32,3.73,110.24Z"/>
            <path class="cls-36" d="m143.88,256c0,58.51-1.61,105.87-3.59,105.87s-3.58-47.35-3.58-105.87,1.61-105.87,3.58-105.87,3.59,47.35,3.59,105.87Z"/>
            <path class="cls-27" d="m143.73,256c0,56.09-1.54,101.49-3.44,101.49s-3.44-45.39-3.44-101.49,1.54-101.49,3.44-101.49,3.44,45.39,3.44,101.49Z"/>
            <path class="cls-25" d="m143.58,256c0,53.68-1.47,97.11-3.29,97.11s-3.29-43.43-3.29-97.11,1.47-97.11,3.29-97.11,3.29,43.43,3.29,97.11Z"/>
            <path class="cls-57" d="m143.43,256c0,51.26-1.41,92.73-3.14,92.73s-3.14-41.47-3.14-92.73,1.41-92.73,3.14-92.73,3.14,41.47,3.14,92.73Z"/>
            <path class="cls-32" d="m143.29,256c0,48.84-1.34,88.35-2.99,88.35s-2.99-39.51-2.99-88.35,1.34-88.35,2.99-88.35,2.99,39.51,2.99,88.35Z"/>
            <path class="cls-33" d="m143.14,256c0,46.43-1.27,83.98-2.85,83.98s-2.84-37.55-2.84-83.98,1.27-83.98,2.84-83.98,2.85,37.55,2.85,83.98Z"/>
            <path class="cls-13" d="m142.99,256c0,44.01-1.21,79.6-2.7,79.6s-2.7-35.59-2.7-79.6,1.21-79.6,2.7-79.6,2.7,35.59,2.7,79.6Z"/>
            <path class="cls-38" d="m142.84,256c0,41.59-1.14,75.22-2.55,75.22s-2.55-33.63-2.55-75.22,1.14-75.22,2.55-75.22,2.55,33.63,2.55,75.22Z"/>
            <path class="cls-19" d="m142.69,256c0,39.17-1.07,70.84-2.4,70.84s-2.4-31.67-2.4-70.84,1.08-70.84,2.4-70.84,2.4,31.67,2.4,70.84Z"/>
            <path class="cls-40" d="m142.55,256c0,36.76-1.01,66.47-2.25,66.47s-2.25-29.71-2.25-66.47,1.01-66.47,2.25-66.47,2.25,29.71,2.25,66.47Z"/>
            <path class="cls-35" d="m142.4,256c0,34.34-.94,62.09-2.1,62.09s-2.1-27.75-2.1-62.09.94-62.09,2.1-62.09,2.1,27.75,2.1,62.09Z"/>
            <path class="cls-18" d="m142.25,256c0,31.92-.88,57.71-1.96,57.71s-1.95-25.79-1.95-57.71.88-57.71,1.95-57.71,1.96,25.79,1.96,57.71Z"/>
            <path class="cls-58" d="m142.1,256c0,29.51-.81,53.33-1.81,53.33s-1.81-23.83-1.81-53.33.81-53.33,1.81-53.33,1.81,23.83,1.81,53.33Z"/>
            <path class="cls-10" d="m141.95,256c0,27.09-.74,48.95-1.66,48.95s-1.66-21.87-1.66-48.95.74-48.95,1.66-48.95,1.66,21.87,1.66,48.95Z"/>
            <path class="cls-31" d="m141.81,256c0,24.67-.68,44.58-1.51,44.58s-1.51-19.91-1.51-44.58.68-44.58,1.51-44.58,1.51,19.91,1.51,44.58Z"/>
            <path class="cls-29" d="m141.66,256c0,22.25-.61,40.2-1.36,40.2s-1.36-17.95-1.36-40.2.61-40.2,1.36-40.2,1.36,17.95,1.36,40.2Z"/>
            <path class="cls-26" d="m141.51,256c0,19.84-.54,35.82-1.22,35.82s-1.21-15.98-1.21-35.82.54-35.82,1.21-35.82,1.22,15.98,1.22,35.82Z"/>
            <path class="cls-21" d="m141.36,256c0,17.42-.48,31.44-1.07,31.44s-1.06-14.02-1.06-31.44.48-31.44,1.06-31.44,1.07,14.02,1.07,31.44Z"/>
            <path class="cls-47" d="m141.21,256c0,15-.41,27.07-.92,27.07s-.92-12.06-.92-27.07.41-27.07.92-27.07.92,12.06.92,27.07Z"/>
            <path class="cls-7" d="m141.06,256c0,12.58-.35,22.69-.77,22.69s-.77-10.1-.77-22.69.35-22.69.77-22.69.77,10.1.77,22.69Z"/>
            <path class="cls-30" d="m140.92,256c0,10.17-.28,18.31-.62,18.31s-.62-8.14-.62-18.31.28-18.31.62-18.31.62,8.14.62,18.31Z"/>
            <path class="cls-41" d="m140.77,256c0,7.75-.21,13.93-.47,13.93s-.47-6.18-.47-13.93.21-13.93.47-13.93.47,6.18.47,13.93Z"/>
            <path class="cls-5" d="m140.62,256c0,5.33-.15,9.55-.33,9.55s-.32-4.22-.32-9.55.15-9.55.32-9.55.33,4.22.33,9.55Z"/>
          </g>
          <path class="cls-22" d="m147.44,477.93v23.84c-3.44,1.01-8.32,1.91-14.29,2.65v-23.84c5.97-.75,10.85-1.64,14.29-2.65Z"/>
          <path class="cls-54" d="m147.44,11.88v23.84c-3.44,1.01-8.32,1.91-14.29,2.65V14.53c5.97-.75,10.85-1.64,14.29-2.65Z"/>
          <path class="cls-28" d="m153.07,474.83c0,4.84-28.32,8.76-63.25,8.76s-63.25-3.92-63.25-8.76c0-.07,0-.12.02-.19.7,4.56,28.74,8.24,63.23,8.24s62.53-3.67,63.23-8.24c0,.07.02.12.02.19Z"/>
          <g>
            <ellipse class="cls-43" cx="56.24" cy="16.01" rx="1.34" ry="13.48"/>
            <path class="cls-1" d="m57.18,16.96c-5.28,5.26-9.98,9.11-10.5,8.59-.52-.52,3.33-5.21,8.61-10.48,5.28-5.26,9.98-9.11,10.5-8.59.52.52-3.33,5.21-8.61,10.48Z"/>
            <ellipse class="cls-44" cx="56.24" cy="16.01" rx="13.52" ry="1.34"/>
            <path class="cls-17" d="m55.29,16.96c-5.28-5.26-9.13-9.96-8.61-10.48.52-.52,5.23,3.32,10.5,8.59,5.28,5.26,9.13,9.96,8.61,10.48-.52.52-5.23-3.32-10.5-8.59Z"/>
          </g>
          <g>
            <ellipse class="cls-49" cx="56.24" cy="481.92" rx="1.34" ry="13.48"/>
            <path class="cls-12" d="m57.18,482.87c-5.28,5.26-9.98,9.11-10.5,8.59-.52-.52,3.33-5.21,8.61-10.48,5.28-5.26,9.98-9.11,10.5-8.59.52.52-3.33,5.21-8.61,10.48Z"/>
            <ellipse class="cls-20" cx="56.24" cy="481.92" rx="13.52" ry="1.34"/>
            <path class="cls-42" d="m55.29,482.87c-5.28-5.26-9.13-9.96-8.61-10.48.52-.52,5.23,3.32,10.5,8.59s9.13,9.96,8.61,10.48c-.52.52-5.23-3.32-10.5-8.59Z"/>
          </g>
          <ellipse class="cls-69" cx="89.58" cy="534.77" rx="89.58" ry="17.26"/>
        </g>
      </g>
    </g>
  </g>
</svg>