<?xml version="1.0" encoding="UTF-8"?>
<svg id="Capa_2" data-name="Capa 2" xmlns="http://www.w3.org/2000/svg" viewBox="0 0 316.79 78.47">
  <defs>
    <style>
      .cls-1 {
        fill: #d23a34;
      }

      .cls-2 {
        fill: #001783;
      }
    </style>
  </defs>
  <g id="Capa_1-2" data-name="Capa 1">
    <g>
      <path class="cls-2" d="m297.31,10c-2.76,0-4.99-2.24-4.99-5.01s2.23-4.99,4.99-4.99,5.01,2.23,5.01,4.99-2.25,5.01-5.01,5.01m0-9.31c-2.36,0-4.3,1.94-4.3,4.3s1.94,4.3,4.3,4.3,4.3-1.93,4.3-4.3-1.93-4.3-4.3-4.3m1.29,7.14l-1.92-2.58h-.23v2.58h-.86V2.18c.38-.19.92-.31,1.49-.31,1.34,0,2.06.79,2.06,1.68s-.64,1.5-1.56,1.63l2.05,2.66h-1.03Zm-1.59-5.29c-.21,0-.42.04-.57.1v1.98h.37c.87,0,1.46-.23,1.46-1.06,0-.88-.83-1.02-1.25-1.02"/>
      <path class="cls-2" d="m274.21,58.13c-6.31,0-10.69-1.28-13.09-3.19l3.19-11.57c.88.79,3.75,2.31,6.86,2.31,2.71,0,4.14-1.91,4.14-3.51,0-2.87-1.11-4.55-5.58-8.61-5.98-5.34-8.14-9.81-8.14-15.64,0-9.97,6.3-16.27,15.96-16.27,4.63,0,9.26,1.28,11.73,3.19l-2.4,9.89c-1.19-.88-3.67-1.59-6.3-1.59-2.39,0-4.31,1.43-4.31,3.91,0,2.63,1.04,4.07,5.51,8.14,6.46,5.74,9.17,9.49,9.17,16.43,0,10.05-6.7,16.51-16.75,16.51"/>
      <rect class="cls-2" x="237.99" y="25.05" width="19.31" height="11.89"/>
      <path class="cls-2" d="m139.64,58.23c-13.54,0-19.51-12.67-19.51-28.2S126.1,1.83,139.64,1.83s19.51,12.67,19.51,28.2-5.97,28.2-19.51,28.2m0-44.93c-3.83,0-4.38,8.05-4.38,16.17s.64,16.17,4.38,16.17,4.3-7.96,4.3-16.17-.56-16.17-4.3-16.17"/>
      <polygon class="cls-2" points="183.13 13.65 183.13 57.04 168.29 57.04 168.29 13.65 161.27 13.65 161.27 2.16 190.15 2.16 190.15 13.65 183.13 13.65"/>
      <path class="cls-2" d="m16.07,37.96l-.88-.08v19.28H.38V4.74c3.74-1.91,9.48-3.19,16.25-3.19,14.74,0,19.67,7.81,19.67,18.24s-5.81,19.44-20.23,18.16m.55-26.36c-.48,0-.95.07-1.43.16v16.09h.88c4.94,0,5.57-4.3,5.49-8.05,0-3.66-.48-8.2-4.94-8.2"/>
      <path class="cls-2" d="m59.3,57.16l-1.51-7.25h-11.71l-1.51,7.25h-12.58L46.48,3.18s2.71-1.67,6.99-1.65c4.28.02,6.79,1.65,6.79,1.65l14.18,53.98h-15.14Zm-5.97-30.35c-.55-3.11-1.04-6.53-1.04-6.53h-.15s-.48,3.43-1.12,6.53l-2.87,13.38h7.73l-2.55-13.38Z"/>
      <path class="cls-2" d="m103.73,57.16l-11.71-23.58c-1.35-2.62-1.99-4.54-1.99-4.54h-.24s.24,1.84.24,4.54v23.58h-12.58V3.18s2.48-1.63,6.42-1.63,5.68,1.63,5.68,1.63l9.8,18.05c1.27,2.47,2.55,5.26,2.55,5.26h.16s-.24-2.79-.24-5.34V3.18s2.13-1.66,6-1.65c3.86,0,6.58,1.65,6.58,1.65v53.98h-10.67Z"/>
      <path class="cls-2" d="m212.07,58.23c-13.54,0-19.52-12.67-19.52-28.2s5.98-28.2,19.52-28.2,19.52,12.67,19.52,28.2-5.98,28.2-19.52,28.2m0-44.93c-3.83,0-4.38,8.05-4.38,16.17s.63,16.17,4.38,16.17,4.3-7.97,4.3-16.17-.56-16.17-4.3-16.17"/>
      <rect class="cls-1" y="72.32" width="289.53" height="6.15"/>
      <text/>
    </g>
  </g>
</svg>