<?xml version="1.0" encoding="UTF-8"?>
<svg id="Capa_2" data-name="Capa 2" xmlns="http://www.w3.org/2000/svg" viewBox="0 0 737.2 86.81">
  <defs>
    <style>
      .cls-1 {
        font-family: Aller-Bold, Aller;
        font-size: 57.51px;
        font-weight: 700;
      }

      .cls-1, .cls-2 {
        fill: #010f70;
      }
    </style>
  </defs>
  <g id="Capa_1-2" data-name="Capa 1">
    <g>
      <g>
        <path class="cls-2" d="m9.85,67.02H1.94c-.9,0-1.66-.67-1.76-1.56-.12-1.13-.18-2.35-.18-3.67,0-.94.05-1.84.15-2.72.04-.38.09-.77.14-1.16.11-.89.86-1.55,1.75-1.55h9c.92,0,1.68-.7,1.76-1.62l.71-8.63c.09-1.03-.73-1.91-1.76-1.91H3.96c-.89,0-1.64-.67-1.75-1.55-.05-.39-.1-.78-.14-1.16-.1-.87-.15-1.78-.15-2.72s.05-1.83.15-2.66c.04-.37.09-.74.14-1.13.11-.88.87-1.54,1.75-1.54h9c.92,0,1.68-.7,1.76-1.61l1.05-12.19c.07-.83.71-1.49,1.53-1.6.57-.08,1.12-.13,1.65-.17.97-.07,2.03-.1,3.17-.1,1.01,0,1.99.03,2.97.1.43.03.86.07,1.3.13.93.12,1.6.97,1.52,1.91l-1,11.63c-.09,1.03.72,1.92,1.76,1.92h8.72c.92,0,1.68-.7,1.76-1.61l1.05-12.19c.07-.82.7-1.49,1.52-1.6.61-.08,1.18-.14,1.72-.18.94-.07,1.98-.1,3.12-.1,1.01,0,1.99.03,2.97.1.45.03.92.08,1.39.14.94.12,1.61.97,1.53,1.91l-1,11.62c-.09,1.03.72,1.92,1.76,1.92h7.1c.88,0,1.63.66,1.75,1.53.05.36.1.7.14,1.03.1.77.15,1.63.15,2.56s-.05,1.88-.15,2.81c-.04.42-.09.84-.14,1.25-.11.89-.86,1.56-1.76,1.56h-8.19c-.92,0-1.68.7-1.76,1.62l-.71,8.63c-.09,1.03.73,1.91,1.76,1.91h7c.88,0,1.63.66,1.75,1.53.05.37.1.73.14,1.08.1.8.15,1.68.15,2.61s-.05,1.84-.15,2.72c-.04.38-.09.77-.14,1.16-.11.88-.86,1.55-1.75,1.55h-8.19c-.92,0-1.69.71-1.76,1.62l-1.17,14.58c-.07.83-.72,1.5-1.54,1.62-.61.08-1.18.14-1.74.18-.97.07-1.99.1-3.07.1s-2.08-.03-3.02-.1c-.44-.03-.89-.08-1.35-.14-.93-.12-1.61-.96-1.53-1.9l1.12-14.06c.08-1.03-.73-1.91-1.76-1.91h-8.62c-.92,0-1.69.71-1.76,1.62l-1.17,14.58c-.07.83-.72,1.5-1.54,1.62-.61.08-1.18.14-1.73.18-.97.07-2.03.1-3.17.1-1.01,0-1.98-.03-2.92-.1-.45-.03-.93-.08-1.43-.14-.94-.12-1.63-.95-1.56-1.9l1.12-14.05c.08-1.03-.73-1.91-1.76-1.91Zm27.48-12.28l.71-8.63c.09-1.03-.73-1.91-1.76-1.91h-8.72c-.92,0-1.68.7-1.76,1.62l-.71,8.63c-.09,1.03.73,1.91,1.76,1.91h8.72c.92,0,1.68-.7,1.76-1.62Z"/>
        <path class="cls-2" d="m93.97,68.22V26.72c0-1.25-1.26-2.1-2.42-1.64l-12.43,4.95c-.75.3-1.61.06-2.08-.59-1.31-1.83-2.44-3.69-3.38-5.58-.91-1.89-1.68-3.84-2.31-5.85-.27-.85.17-1.76.98-2.12L108.18.15c.22-.1.47-.15.71-.15h1.4c.98,0,1.77.79,1.77,1.77v66.45c0,.98.79,1.77,1.77,1.77h15.47c.88,0,1.63.65,1.75,1.52s.22,1.75.28,2.54c.09,1.22.13,2.45.13,3.67,0,1.4-.05,2.71-.13,3.93-.06.79-.15,1.64-.28,2.54s-.87,1.52-1.75,1.52h-52.82c-.88,0-1.63-.65-1.75-1.52s-.22-1.75-.28-2.54c-.09-1.22-.13-2.53-.13-3.93,0-1.22.04-2.45.13-3.67.06-.79.15-1.64.28-2.54s.87-1.52,1.75-1.52h15.73c.98,0,1.77-.79,1.77-1.77Z"/>
        <path class="cls-2" d="m175.42,65.97c-1.12,0-1.96,1.03-1.73,2.13.53,2.59,1.72,4.54,3.57,5.86,2.32,1.65,5.38,2.48,9.18,2.48,2.08,0,4.21-.2,6.38-.6,1.63-.3,3.2-.69,4.71-1.18.87-.28,1.83.1,2.19.94.38.89.73,1.87,1.04,2.95.37,1.3.62,2.67.74,4.12.07.81-.39,1.58-1.16,1.84-4.46,1.54-9.43,2.3-14.92,2.3-4.41,0-8.19-.61-11.34-1.84-3.15-1.22-5.72-2.92-7.71-5.09-1.99-2.17-3.46-4.76-4.41-7.76-.95-3-1.42-6.27-1.42-9.82s.49-6.76,1.47-9.82c.98-3.06,2.43-5.72,4.36-7.99,1.93-2.26,4.31-4.05,7.16-5.37,2.85-1.32,6.17-1.97,9.96-1.97,3.3,0,6.24.58,8.81,1.74,2.57,1.16,4.76,2.75,6.56,4.77,1.8,2.02,3.17,4.42,4.08,7.21.92,2.79,1.38,5.77,1.38,8.95,0,1.16-.05,2.31-.14,3.44-.03.4-.07.78-.1,1.13-.1.9-.85,1.58-1.76,1.58h-26.92Zm14.66-9.09c1.11,0,1.93-1.01,1.74-2.1-.35-1.99-1.09-3.66-2.21-5.01-1.5-1.8-3.6-2.71-6.29-2.71-3.06,0-5.39.86-6.98,2.57-1.2,1.29-2.03,2.98-2.5,5.07-.25,1.12.58,2.19,1.72,2.19h14.52Z"/>
        <path class="cls-2" d="m214.62,39.73c0-.88.66-1.62,1.53-1.76.35-.05.69-.1,1.04-.13.86-.09,1.8-.14,2.85-.14s1.96.05,2.75.14c.49.06.99.13,1.5.22.67.12,1.22.6,1.41,1.25.03.09.05.18.08.27.15.58.29,1.19.41,1.84.12.64.23,1.27.32,1.88.09.61.17,1.13.23,1.56.61-.92,1.35-1.84,2.2-2.75.86-.92,1.85-1.74,2.98-2.48,1.13-.73,2.4-1.33,3.81-1.79,1.41-.46,2.97-.69,4.68-.69,5.38,0,9.44,1.47,12.16,4.41,2.72,2.94,4.08,7.56,4.08,13.86v28.77c0,.88-.64,1.64-1.51,1.75-1.69.22-3.36.33-5.01.33s-3.32-.11-5.01-.33c-.87-.11-1.51-.87-1.51-1.75v-25.28c0-3.3-.5-5.84-1.51-7.62-1.01-1.77-2.77-2.66-5.28-2.66-1.04,0-2.11.15-3.21.46-1.1.31-2.1.9-2.98,1.79s-1.61,2.13-2.16,3.72c-.55,1.59-.83,3.67-.83,6.24v23.35c0,.88-.64,1.64-1.51,1.75-1.69.22-3.36.33-5.01.33s-3.32-.11-5.01-.33c-.87-.11-1.51-.87-1.51-1.75v-44.46Z"/>
        <path class="cls-2" d="m301.09,65.97c-1.12,0-1.96,1.03-1.73,2.13.53,2.59,1.72,4.54,3.57,5.86,2.32,1.65,5.38,2.48,9.18,2.48,2.08,0,4.21-.2,6.38-.6,1.63-.3,3.2-.69,4.71-1.18.87-.28,1.83.1,2.19.94.38.89.73,1.87,1.04,2.95.37,1.3.62,2.67.74,4.12.07.81-.39,1.58-1.16,1.84-4.46,1.54-9.43,2.3-14.92,2.3-4.41,0-8.19-.61-11.34-1.84-3.15-1.22-5.72-2.92-7.71-5.09-1.99-2.17-3.46-4.76-4.41-7.76-.95-3-1.42-6.27-1.42-9.82s.49-6.76,1.47-9.82c.98-3.06,2.43-5.72,4.36-7.99,1.93-2.26,4.31-4.05,7.16-5.37,2.85-1.32,6.17-1.97,9.96-1.97,3.3,0,6.24.58,8.81,1.74,2.57,1.16,4.76,2.75,6.56,4.77,1.8,2.02,3.17,4.42,4.08,7.21.92,2.79,1.38,5.77,1.38,8.95,0,1.16-.05,2.31-.14,3.44-.03.4-.07.78-.1,1.13-.1.9-.85,1.58-1.76,1.58h-26.92Zm14.66-9.09c1.11,0,1.93-1.01,1.74-2.1-.35-1.99-1.09-3.66-2.21-5.01-1.5-1.8-3.6-2.71-6.29-2.71-3.06,0-5.39.86-6.98,2.57-1.2,1.29-2.03,2.98-2.5,5.07-.25,1.12.58,2.19,1.72,2.19h14.52Z"/>
        <path class="cls-2" d="m339.93,20.13c0-.88.64-1.64,1.51-1.75,1.69-.22,3.36-.33,5.01-.33s3.24.11,4.92.33c.87.11,1.51.87,1.51,1.75v46.67c0,1.9.11,3.43.32,4.59.21,1.16.55,2.07,1.01,2.71.46.64,1.06,1.09,1.79,1.33.73.25,1.65.37,2.75.37.49,0,1.02-.03,1.61-.09.04,0,.09,0,.13-.01.92-.1,1.77.49,1.96,1.4.41,1.93.61,3.83.61,5.69v1.33h0c0,.77-.52,1.45-1.27,1.62s-1.54.28-2.44.36c-1.38.12-2.65.18-3.81.18-4.71,0-8.49-1.3-11.34-3.9-2.85-2.6-4.27-6.84-4.27-12.71V20.13Z"/>
        <path class="cls-2" d="m390.23,39.73c0-.88.66-1.62,1.53-1.76.35-.05.69-.1,1.04-.13.86-.09,1.81-.14,2.85-.14s1.96.05,2.75.14c.49.06.99.13,1.5.22.67.12,1.22.6,1.41,1.25.03.09.05.18.08.27.15.58.29,1.19.41,1.84.12.64.23,1.27.32,1.88.09.61.17,1.13.23,1.56.49-.92,1.13-1.84,1.93-2.75.79-.92,1.74-1.74,2.85-2.48s2.34-1.33,3.72-1.79c1.38-.46,2.92-.69,4.64-.69,6.17,0,10.49,1.96,12.97,5.86.65,1.03,2.08,1.14,2.83.18,1.01-1.29,2.21-2.46,3.62-3.52,2.23-1.68,5.06-2.52,8.49-2.52,5.39,0,9.35,1.48,11.89,4.45,2.54,2.97,3.81,7.61,3.81,13.91v28.68c0,.88-.64,1.64-1.51,1.75-1.69.22-3.36.33-5.01.33s-3.32-.11-5.01-.33c-.87-.11-1.51-.87-1.51-1.75v-25.28c0-3.3-.41-5.84-1.24-7.62-.83-1.77-2.49-2.66-5-2.66-1.04,0-2.07.15-3.07.46-1.01.31-1.93.87-2.76,1.7-.83.83-1.5,1.99-2.02,3.49-.52,1.5-.78,3.44-.78,5.83v24.09c0,.88-.64,1.64-1.51,1.75-1.69.22-3.36.33-5.01.33s-3.32-.11-5.01-.33c-.87-.11-1.51-.87-1.51-1.75v-25.28c0-3.3-.41-5.84-1.24-7.62-.83-1.77-2.5-2.66-5-2.66-1.04,0-2.08.15-3.12.46-1.04.31-1.97.9-2.8,1.79-.83.89-1.49,2.13-1.97,3.72-.49,1.59-.73,3.67-.73,6.24v23.35c0,.88-.64,1.64-1.51,1.75-1.69.22-3.36.33-5.01.33s-3.32-.11-5.01-.33c-.87-.11-1.51-.87-1.51-1.75v-44.46Z"/>
        <path class="cls-2" d="m470.1,39.78c0-.88.64-1.64,1.51-1.75,1.69-.22,3.36-.33,5.01-.33s3.32.11,5.01.33c.87.11,1.51.87,1.51,1.75v23.63c0,2.51.2,4.58.6,6.2.4,1.62,1.01,2.91,1.84,3.86.83.95,1.85,1.62,3.07,2.02,1.22.4,2.66.6,4.32.6s3.02-.11,4.26-.32c.84-.15,1.43-.89,1.43-1.74v-34.24c0-.88.64-1.64,1.51-1.75,1.67-.22,3.31-.33,4.92-.33s3.32.11,5.01.33c.87.11,1.51.87,1.51,1.75v42.81c0,.78-.5,1.47-1.25,1.69-1.77.53-3.94,1.06-6.51,1.57-3.21.64-6.56.96-10.05.96-3.12,0-6.12-.25-9-.73-2.88-.49-5.4-1.53-7.57-3.12-2.17-1.59-3.9-3.92-5.19-6.98-1.29-3.06-1.93-7.13-1.93-12.21v-24Z"/>
        <path class="cls-2" d="m523.44,39.73c0-.88.66-1.62,1.53-1.76.35-.05.69-.1,1.04-.13.86-.09,1.81-.14,2.85-.14s1.96.05,2.75.14c.49.06.99.13,1.5.22.67.12,1.22.6,1.41,1.25.03.09.05.18.08.27.15.58.29,1.19.41,1.84s.23,1.27.32,1.88c.09.61.17,1.13.23,1.56.61-.92,1.34-1.84,2.2-2.75.86-.92,1.85-1.74,2.98-2.48,1.13-.73,2.4-1.33,3.81-1.79,1.41-.46,2.97-.69,4.68-.69,5.39,0,9.44,1.47,12.16,4.41,2.72,2.94,4.08,7.56,4.08,13.86v28.77c0,.88-.64,1.64-1.51,1.75-1.69.22-3.36.33-5.01.33s-3.32-.11-5.01-.33c-.87-.11-1.51-.87-1.51-1.75v-25.28c0-3.3-.5-5.84-1.52-7.62-1.01-1.77-2.77-2.66-5.28-2.66-1.04,0-2.11.15-3.21.46-1.1.31-2.1.9-2.98,1.79-.89.89-1.61,2.13-2.16,3.72-.55,1.59-.83,3.67-.83,6.24v23.35c0,.88-.64,1.64-1.51,1.75-1.69.22-3.36.33-5.01.33s-3.32-.11-5.01-.33c-.87-.11-1.51-.87-1.51-1.75v-44.46Z"/>
        <path class="cls-2" d="m605.78,20.14c0-.9.68-1.66,1.57-1.76.57-.07,1.13-.11,1.69-.15,1.07-.06,2.13-.09,3.17-.09s2.11.03,3.21.09c.58.03,1.16.08,1.73.15.89.1,1.57.86,1.57,1.76v62.67c0,.79-.52,1.5-1.29,1.71-2.46.68-4.95,1.21-7.48,1.6-2.97.46-6.56.69-10.79.69-3.24,0-6.35-.44-9.32-1.33-2.97-.89-5.58-2.3-7.85-4.22-2.26-1.93-4.05-4.42-5.37-7.48-1.32-3.06-1.97-6.79-1.97-11.2,0-3.49.56-6.78,1.7-9.87,1.13-3.09,2.75-5.77,4.87-8.03,2.11-2.26,4.67-4.05,7.67-5.37,3-1.32,6.34-1.97,10.01-1.97,1.1,0,2.25.05,3.44.14.47.04.93.09,1.38.16,1.08.16,2.07-.64,2.07-1.73v-15.75Zm0,29.33c0-.84-.6-1.56-1.42-1.73-.6-.13-1.12-.21-1.56-.27-.77-.09-1.73-.14-2.89-.14-2.02,0-3.78.41-5.28,1.24s-2.74,1.93-3.72,3.3c-.98,1.38-1.7,3-2.16,4.87-.46,1.87-.69,3.81-.69,5.83,0,2.51.31,4.64.92,6.38.61,1.74,1.45,3.14,2.52,4.18,1.07,1.04,2.34,1.79,3.81,2.25,1.47.46,3.06.69,4.77.69,1.04,0,1.99-.05,2.85-.14.46-.05.96-.13,1.48-.24.8-.17,1.37-.9,1.37-1.72v-24.49Z"/>
        <path class="cls-2" d="m651.41,86.81c-3.86,0-7.21-.63-10.05-1.88-2.85-1.25-5.2-3-7.07-5.23-1.87-2.23-3.27-4.85-4.22-7.85-.95-3-1.42-6.24-1.42-9.73s.47-6.76,1.42-9.82c.95-3.06,2.35-5.71,4.22-7.94,1.87-2.23,4.22-3.99,7.07-5.28,2.85-1.28,6.2-1.93,10.05-1.93s7.22.64,10.1,1.93c2.88,1.29,5.26,3.05,7.16,5.28,1.9,2.23,3.31,4.88,4.22,7.94.92,3.06,1.38,6.33,1.38,9.82s-.46,6.73-1.38,9.73c-.92,3-2.33,5.62-4.22,7.85-1.9,2.23-4.28,3.98-7.16,5.23-2.88,1.25-6.24,1.88-10.1,1.88Zm0-9.91c3.43,0,5.89-1.27,7.39-3.81,1.5-2.54,2.25-6.2,2.25-10.97s-.75-8.43-2.25-10.97c-1.5-2.54-3.96-3.81-7.39-3.81s-5.8,1.27-7.3,3.81c-1.5,2.54-2.25,6.2-2.25,10.97s.75,8.43,2.25,10.97c1.5,2.54,3.93,3.81,7.3,3.81Z"/>
      </g>
      <text class="cls-1" transform="translate(683.49 57.15)"><tspan x="0" y="0">ยน*</tspan></text>
    </g>
  </g>
</svg>